<svg xmlns="http://www.w3.org/2000/svg" viewBox="0 0 1016 263" role="img" aria-labelledby="title">
<title>Kanao Interior Design</title>
<path d="M 653 262 L 656 262 L 655 262 L 654 261 Z M 443 262 L 442 262 L 441 261 L 440 262 L 439 262 Z M 287 260 L 287 261 L 286 262 L 288 262 L 287 261 Z M 326 258 L 325 258 L 325 259 Z M 555 249 L 555 261 L 556 262 L 555 261 Z M 418 245 L 419 246 L 419 250 L 419 246 Z M 654 242 L 654 243 L 655 243 Z M 441 242 L 441 243 L 442 243 L 442 242 Z M 351 242 L 350 243 L 351 243 Z M 855 29 L 855 30 L 854 31 L 854 32 L 852 34 L 852 35 L 851 36 L 851 38 L 850 39 L 850 40 L 849 41 L 849 43 L 848 44 L 848 46 L 847 47 L 847 50 L 846 51 L 846 57 L 845 58 L 845 73 L 846 74 L 846 80 L 847 81 L 847 84 L 848 85 L 848 87 L 849 88 L 849 90 L 850 91 L 850 92 L 851 93 L 851 95 L 852 96 L 852 97 L 853 98 L 853 99 L 855 101 L 855 102 L 857 104 L 857 105 L 861 109 L 861 110 L 865 114 L 866 114 L 871 119 L 872 119 L 874 121 L 875 121 L 876 122 L 877 122 L 879 124 L 880 124 L 881 125 L 882 125 L 883 126 L 885 126 L 886 127 L 888 127 L 889 128 L 891 128 L 892 129 L 895 129 L 896 130 L 901 130 L 902 131 L 959 131 L 960 130 L 965 130 L 966 129 L 969 129 L 970 128 L 972 128 L 973 127 L 975 127 L 976 126 L 977 126 L 978 125 L 979 125 L 980 124 L 981 124 L 982 123 L 983 123 L 984 122 L 985 122 L 987 120 L 988 120 L 991 117 L 992 117 L 1002 107 L 1002 106 L 1004 104 L 1004 103 L 1006 101 L 1006 100 L 1008 98 L 1008 97 L 1009 96 L 1009 95 L 1010 94 L 1010 93 L 1011 92 L 1011 90 L 1012 89 L 1012 87 L 1013 86 L 1013 83 L 1014 82 L 1014 79 L 1015 78 L 1015 54 L 1014 53 L 1014 49 L 1013 48 L 1013 45 L 1012 44 L 1012 42 L 1011 41 L 1011 40 L 1010 39 L 1010 37 L 1009 36 L 1009 35 L 1008 34 L 1008 33 L 1006 31 L 1006 30 L 1004 28 L 1004 27 L 1001 24 L 1001 23 L 993 15 L 992 15 L 989 12 L 988 12 L 986 10 L 985 10 L 983 8 L 982 8 L 981 7 L 980 7 L 979 6 L 978 6 L 977 5 L 975 5 L 974 4 L 972 4 L 971 3 L 969 3 L 968 2 L 965 2 L 964 1 L 958 1 L 957 0 L 903 0 L 902 1 L 897 1 L 896 2 L 892 2 L 891 3 L 889 3 L 888 4 L 886 4 L 885 5 L 884 5 L 883 6 L 882 6 L 881 7 L 880 7 L 879 8 L 878 8 L 877 9 L 876 9 L 875 10 L 874 10 L 871 13 L 870 13 L 858 25 L 858 26 Z M 854 34 L 856 32 L 856 31 L 858 29 L 858 28 L 861 25 L 861 24 L 869 16 L 870 16 L 873 13 L 874 13 L 876 11 L 877 11 L 879 9 L 880 9 L 881 8 L 882 8 L 883 7 L 884 7 L 885 6 L 887 6 L 888 5 L 889 5 L 890 4 L 893 4 L 894 3 L 897 3 L 898 2 L 904 2 L 905 1 L 955 1 L 956 2 L 963 2 L 964 3 L 967 3 L 968 4 L 970 4 L 971 5 L 973 5 L 974 6 L 975 6 L 976 7 L 978 7 L 980 9 L 981 9 L 982 10 L 983 10 L 984 11 L 985 11 L 988 14 L 989 14 L 1001 26 L 1001 27 L 1004 30 L 1004 31 L 1005 32 L 1005 33 L 1007 35 L 1007 36 L 1008 37 L 1008 38 L 1009 39 L 1009 41 L 1010 42 L 1010 44 L 1011 45 L 1011 47 L 1012 48 L 1012 51 L 1013 52 L 1013 60 L 1014 61 L 1014 70 L 1013 71 L 1013 79 L 1012 80 L 1012 83 L 1011 84 L 1011 86 L 1010 87 L 1010 89 L 1009 90 L 1009 92 L 1008 93 L 1008 94 L 1007 95 L 1007 96 L 1006 97 L 1006 98 L 1004 100 L 1004 101 L 1002 103 L 1002 104 L 996 110 L 996 111 L 994 113 L 993 113 L 988 118 L 987 118 L 985 120 L 984 120 L 982 122 L 981 122 L 980 123 L 979 123 L 978 124 L 977 124 L 976 125 L 974 125 L 973 126 L 972 126 L 971 127 L 969 127 L 968 128 L 965 128 L 964 129 L 959 129 L 958 130 L 903 130 L 902 129 L 897 129 L 896 128 L 893 128 L 892 127 L 890 127 L 889 126 L 887 126 L 886 125 L 885 125 L 884 124 L 883 124 L 882 123 L 881 123 L 880 122 L 879 122 L 878 121 L 877 121 L 875 119 L 874 119 L 871 116 L 870 116 L 861 107 L 861 106 L 858 103 L 858 102 L 856 100 L 856 99 L 854 97 L 854 96 L 853 95 L 853 94 L 852 93 L 852 91 L 851 90 L 851 89 L 850 88 L 850 86 L 849 85 L 849 82 L 848 81 L 848 76 L 847 75 L 847 56 L 848 55 L 848 50 L 849 49 L 849 47 L 850 46 L 850 43 L 851 42 L 851 41 L 852 40 L 852 38 L 853 37 L 853 36 L 854 35 Z M 619 131 L 621 131 L 622 130 L 622 129 L 624 127 L 624 126 L 627 123 L 627 122 L 629 120 L 629 119 L 631 117 L 631 116 L 634 113 L 634 112 L 636 110 L 636 109 L 638 107 L 638 106 L 641 103 L 641 102 L 643 100 L 643 99 L 645 97 L 645 96 L 647 94 L 647 93 L 650 90 L 650 89 L 651 88 L 770 88 L 772 90 L 772 91 L 774 93 L 774 94 L 777 97 L 777 98 L 778 99 L 778 100 L 781 103 L 781 104 L 783 106 L 783 107 L 785 109 L 785 110 L 787 112 L 787 113 L 790 116 L 790 117 L 792 119 L 792 120 L 795 123 L 795 124 L 797 126 L 797 127 L 799 129 L 799 130 L 800 131 L 802 131 L 801 130 L 801 129 L 799 127 L 799 126 L 797 124 L 797 123 L 794 120 L 794 119 L 792 117 L 792 116 L 790 114 L 790 113 L 787 110 L 787 109 L 785 107 L 785 106 L 783 104 L 783 103 L 780 100 L 780 99 L 778 97 L 778 96 L 776 94 L 776 93 L 774 91 L 774 90 L 771 87 L 771 86 L 769 84 L 769 83 L 766 80 L 766 79 L 764 77 L 764 76 L 762 74 L 762 73 L 759 70 L 759 69 L 757 67 L 757 66 L 755 64 L 755 63 L 753 61 L 753 60 L 750 57 L 750 56 L 749 55 L 749 54 L 747 52 L 747 51 L 745 49 L 745 48 L 743 46 L 743 45 L 740 42 L 740 41 L 738 39 L 738 38 L 735 35 L 735 34 L 733 32 L 733 31 L 731 29 L 731 28 L 729 26 L 729 25 L 726 22 L 726 21 L 724 19 L 724 18 L 722 16 L 722 15 L 719 12 L 719 11 L 717 9 L 717 8 L 715 6 L 715 5 L 712 2 L 712 1 L 711 0 L 710 0 L 709 1 L 709 2 L 707 4 L 707 5 L 705 7 L 705 8 L 702 11 L 702 12 L 700 14 L 700 15 L 697 18 L 697 19 L 695 21 L 695 22 L 693 24 L 693 25 L 691 27 L 691 28 L 688 31 L 688 32 L 686 34 L 686 35 L 684 37 L 684 38 L 681 41 L 681 42 L 679 44 L 679 45 L 677 47 L 677 48 L 674 51 L 674 52 L 672 54 L 672 55 L 671 56 L 671 57 L 669 59 L 669 60 L 666 63 L 666 64 L 664 66 L 664 67 L 662 69 L 662 70 L 660 72 L 660 73 L 657 76 L 657 77 L 655 79 L 655 80 L 653 82 L 653 83 L 650 86 L 650 87 L 648 89 L 648 90 L 646 92 L 646 93 L 643 96 L 643 97 L 641 99 L 641 100 L 639 102 L 639 103 L 636 106 L 636 107 L 634 109 L 634 110 L 632 112 L 632 113 L 629 116 L 629 117 L 627 119 L 627 120 L 625 122 L 625 123 L 623 125 L 623 126 L 620 129 L 620 130 Z M 653 85 L 654 84 L 654 83 L 656 81 L 656 80 L 659 77 L 659 76 L 661 74 L 661 73 L 663 71 L 663 70 L 666 67 L 666 66 L 668 64 L 668 63 L 670 61 L 670 60 L 672 58 L 672 57 L 674 55 L 674 54 L 676 52 L 676 51 L 678 49 L 678 48 L 680 46 L 680 45 L 682 43 L 682 42 L 685 39 L 685 38 L 687 36 L 687 35 L 690 32 L 690 31 L 692 29 L 692 28 L 694 26 L 694 25 L 697 22 L 697 21 L 699 19 L 699 18 L 702 15 L 702 14 L 704 12 L 704 11 L 706 9 L 706 8 L 709 5 L 709 4 L 710 3 L 711 3 L 713 5 L 713 6 L 715 8 L 715 9 L 717 11 L 717 12 L 720 15 L 720 16 L 722 18 L 722 19 L 725 22 L 725 23 L 727 25 L 727 26 L 729 28 L 729 29 L 732 32 L 732 33 L 734 35 L 734 36 L 736 38 L 736 39 L 739 42 L 739 43 L 741 45 L 741 46 L 743 48 L 743 49 L 746 52 L 746 53 L 747 54 L 747 55 L 748 56 L 748 57 L 751 60 L 751 61 L 753 63 L 753 64 L 756 67 L 756 68 L 758 70 L 758 71 L 760 73 L 760 74 L 763 77 L 763 78 L 765 80 L 765 81 L 767 83 L 767 84 L 768 85 L 768 86 L 767 87 L 654 87 L 653 86 Z M 423 0 L 423 131 L 425 131 L 425 5 L 426 4 L 427 4 L 432 9 L 433 9 L 439 15 L 440 15 L 444 19 L 445 19 L 452 26 L 453 26 L 458 31 L 459 31 L 466 38 L 467 38 L 473 44 L 474 44 L 480 50 L 481 50 L 492 61 L 493 61 L 499 67 L 500 67 L 506 73 L 507 73 L 512 78 L 513 78 L 520 85 L 521 85 L 527 91 L 528 91 L 534 97 L 535 97 L 541 103 L 542 103 L 548 109 L 549 109 L 555 115 L 556 115 L 561 120 L 562 120 L 568 126 L 569 126 L 574 131 L 576 131 L 576 0 L 574 0 L 574 126 L 573 127 L 572 127 L 566 121 L 565 121 L 559 115 L 558 115 L 552 109 L 551 109 L 545 103 L 544 103 L 539 98 L 538 98 L 532 92 L 531 92 L 525 86 L 524 86 L 518 80 L 517 80 L 512 75 L 511 75 L 505 69 L 504 69 L 498 63 L 497 63 L 487 53 L 486 53 L 479 46 L 478 46 L 471 39 L 470 39 L 465 34 L 464 34 L 458 28 L 457 28 L 450 21 L 449 21 L 444 16 L 443 16 L 437 10 L 436 10 L 431 5 L 430 5 L 425 0 Z M 197 131 L 199 131 L 201 129 L 201 128 L 203 126 L 203 125 L 206 122 L 206 121 L 208 119 L 208 118 L 210 116 L 210 115 L 213 112 L 213 111 L 215 109 L 215 108 L 217 106 L 217 105 L 219 103 L 219 102 L 222 99 L 222 98 L 224 96 L 224 95 L 226 93 L 226 92 L 228 90 L 228 89 L 229 88 L 348 88 L 351 91 L 351 92 L 353 94 L 353 95 L 355 97 L 355 98 L 358 101 L 358 102 L 360 104 L 360 105 L 362 107 L 362 108 L 364 110 L 364 111 L 367 114 L 367 115 L 369 117 L 369 118 L 371 120 L 371 121 L 374 124 L 374 125 L 376 127 L 376 128 L 378 130 L 378 131 L 380 131 L 380 130 L 378 128 L 378 127 L 376 125 L 376 124 L 373 121 L 373 120 L 371 118 L 371 117 L 369 115 L 369 114 L 366 111 L 366 110 L 364 108 L 364 107 L 362 105 L 362 104 L 360 102 L 360 101 L 358 99 L 358 98 L 355 95 L 355 94 L 353 92 L 353 91 L 350 88 L 350 87 L 347 84 L 347 83 L 346 82 L 346 81 L 343 78 L 343 77 L 341 75 L 341 74 L 338 71 L 338 70 L 336 68 L 336 67 L 334 65 L 334 64 L 332 62 L 332 61 L 329 58 L 329 57 L 328 56 L 328 55 L 326 53 L 326 52 L 324 50 L 324 49 L 321 46 L 321 45 L 319 43 L 319 42 L 317 40 L 317 39 L 315 37 L 315 36 L 312 33 L 312 32 L 310 30 L 310 29 L 308 27 L 308 26 L 306 24 L 306 23 L 303 20 L 303 19 L 301 17 L 301 16 L 298 13 L 298 12 L 296 10 L 296 9 L 294 7 L 294 6 L 291 3 L 291 2 L 289 0 L 288 0 L 288 1 L 286 3 L 286 4 L 283 7 L 283 8 L 281 10 L 281 11 L 279 13 L 279 14 L 276 17 L 276 18 L 274 20 L 274 21 L 272 23 L 272 24 L 269 27 L 269 28 L 267 30 L 267 31 L 265 33 L 265 34 L 262 37 L 262 38 L 260 40 L 260 41 L 258 43 L 258 44 L 256 46 L 256 47 L 253 50 L 253 51 L 251 53 L 251 54 L 249 56 L 249 57 L 248 58 L 248 59 L 245 62 L 245 63 L 243 65 L 243 66 L 241 68 L 241 69 L 238 72 L 238 73 L 236 75 L 236 76 L 234 78 L 234 79 L 232 81 L 232 82 L 229 85 L 229 86 L 227 88 L 227 89 L 224 92 L 224 93 L 222 95 L 222 96 L 220 98 L 220 99 L 217 102 L 217 103 L 215 105 L 215 106 L 213 108 L 213 109 L 211 111 L 211 112 L 208 115 L 208 116 L 206 118 L 206 119 L 203 122 L 203 123 L 201 125 L 201 126 L 199 128 L 199 129 Z M 231 85 L 233 83 L 233 82 L 235 80 L 235 79 L 238 76 L 238 75 L 240 73 L 240 72 L 242 70 L 242 69 L 244 67 L 244 66 L 247 63 L 247 62 L 249 60 L 249 59 L 252 56 L 252 54 L 255 51 L 255 50 L 257 48 L 257 47 L 259 45 L 259 44 L 262 41 L 262 40 L 264 38 L 264 37 L 266 35 L 266 34 L 269 31 L 269 30 L 271 28 L 271 27 L 273 25 L 273 24 L 276 21 L 276 20 L 278 18 L 278 17 L 280 15 L 280 14 L 283 11 L 283 10 L 285 8 L 285 7 L 287 5 L 287 4 L 288 3 L 289 3 L 291 5 L 291 6 L 294 9 L 294 10 L 297 13 L 297 14 L 298 15 L 298 16 L 301 19 L 301 20 L 304 23 L 304 24 L 306 26 L 306 27 L 308 29 L 308 30 L 311 33 L 311 34 L 313 36 L 313 37 L 315 39 L 315 40 L 317 42 L 317 43 L 320 46 L 320 47 L 322 49 L 322 50 L 325 53 L 325 54 L 326 55 L 326 56 L 328 58 L 328 59 L 330 61 L 330 62 L 332 64 L 332 65 L 335 68 L 335 69 L 337 71 L 337 72 L 339 74 L 339 75 L 342 78 L 342 79 L 344 81 L 344 82 L 346 84 L 346 85 L 347 86 L 346 87 L 232 87 L 231 86 Z M 0 0 L 0 131 L 2 129 L 3 129 L 9 123 L 10 123 L 17 116 L 18 116 L 24 110 L 25 110 L 31 104 L 32 104 L 39 97 L 40 97 L 46 91 L 47 91 L 54 84 L 55 84 L 61 78 L 62 78 L 68 72 L 69 72 L 75 66 L 77 68 L 78 68 L 85 75 L 86 75 L 90 79 L 91 79 L 98 86 L 99 86 L 105 92 L 106 92 L 112 98 L 113 98 L 121 106 L 122 106 L 127 111 L 128 111 L 134 117 L 135 117 L 142 124 L 143 124 L 148 129 L 149 129 L 151 131 L 153 131 L 149 127 L 148 127 L 142 121 L 141 121 L 135 115 L 134 115 L 127 108 L 126 108 L 120 102 L 119 102 L 112 95 L 111 95 L 105 89 L 104 89 L 98 83 L 97 83 L 90 76 L 89 76 L 83 70 L 82 70 L 77 65 L 82 60 L 83 60 L 94 49 L 95 49 L 102 42 L 103 42 L 109 36 L 110 36 L 117 29 L 118 29 L 124 23 L 125 23 L 131 17 L 132 17 L 138 11 L 139 11 L 145 5 L 146 5 L 151 0 L 149 0 L 147 2 L 146 2 L 140 8 L 139 8 L 132 15 L 131 15 L 125 21 L 124 21 L 117 28 L 116 28 L 110 34 L 109 34 L 103 40 L 102 40 L 96 46 L 95 46 L 88 53 L 87 53 L 77 63 L 76 63 L 69 70 L 68 70 L 62 76 L 61 76 L 53 84 L 52 84 L 47 89 L 46 89 L 40 95 L 39 95 L 33 101 L 32 101 L 25 108 L 24 108 L 18 114 L 17 114 L 11 120 L 10 120 L 3 127 L 2 127 L 1 126 L 1 0 Z" fill="currentColor" fill-rule="evenodd"/>
</svg>